<?xml version="1.0" encoding="UTF-8" standalone="no"?>
<!-- Created with Inkscape (http://www.inkscape.org/) -->

<svg
   xmlns:dc="http://purl.org/dc/elements/1.1/"
   xmlns:cc="http://creativecommons.org/ns#"
   xmlns:rdf="http://www.w3.org/1999/02/22-rdf-syntax-ns#"
   xmlns:svg="http://www.w3.org/2000/svg"
   xmlns="http://www.w3.org/2000/svg"
   xmlns:sodipodi="http://sodipodi.sourceforge.net/DTD/sodipodi-0.dtd"
   xmlns:inkscape="http://www.inkscape.org/namespaces/inkscape"
   width="6.1002588in"
   height="0.56649566in"
   viewBox="0 0 549.02329 50.984609"
   id="svg4276"
   version="1.1"
   inkscape:version="0.91 r13725"
   sodipodi:docname="Zeichnung.svg">
  <defs
     id="defs4278" />
  <sodipodi:namedview
     id="base"
     pagecolor="#ffffff"
     bordercolor="#666666"
     borderopacity="1.0"
     inkscape:pageopacity="0.0"
     inkscape:pageshadow="2"
     inkscape:zoom="1.4095703"
     inkscape:cx="164.61209"
     inkscape:cy="-99.385072"
     inkscape:document-units="px"
     inkscape:current-layer="layer1"
     showgrid="false"
     units="in"
     fit-margin-top="0"
     fit-margin-left="0"
     fit-margin-right="0"
     fit-margin-bottom="0"
     borderlayer="true"
     inkscape:window-width="1857"
     inkscape:window-height="1178"
     inkscape:window-x="-8"
     inkscape:window-y="-8"
     inkscape:window-maximized="1" />
  <metadata
     id="metadata4281">
    <rdf:RDF>
      <cc:Work
         rdf:about="">
        <dc:format>image/svg+xml</dc:format>
        <dc:type
           rdf:resource="http://purl.org/dc/dcmitype/StillImage" />
        <dc:title></dc:title>
      </cc:Work>
    </rdf:RDF>
  </metadata>
  <g
     inkscape:label="Ebene 1"
     inkscape:groupmode="layer"
     id="layer1"
     transform="translate(-46.862896,-353.61507)">
    <path
       sodipodi:type="star"
       style="opacity:1;fill:#ddd40a;fill-opacity:1;stroke:none;stroke-opacity:1"
       id="path4136"
       sodipodi:sides="7"
       sodipodi:cx="69.874977"
       sodipodi:cy="379.37155"
       sodipodi:r1="25.162489"
       sodipodi:r2="9.0584965"
       sodipodi:arg1="0.86522815"
       sodipodi:arg2="1.3140271"
       inkscape:flatsided="false"
       inkscape:rounded="0"
       inkscape:randomized="0"
       d="m 86.192007,398.52633 -14.016561,-10.39326 -7.102773,15.93846 -0.613408,-17.43868 -16.889693,4.38429 13.251654,-11.35242 -13.95833,-10.47133 17.13795,3.28244 -0.51606,-17.44183 8.119021,15.44556 13.314814,-11.27827 -7.013698,15.97785 17.119362,3.37805 -16.864958,4.4785 z"
       inkscape:transform-center-x="-1.0686131"
       inkscape:transform-center-y="0.18121243" />
    <path
       sodipodi:type="star"
       style="opacity:1;fill:#ddd40a;fill-opacity:1;stroke:none;stroke-opacity:1"
       id="path4136-8"
       sodipodi:sides="7"
       sodipodi:cx="76.969353"
       sodipodi:cy="29.88364"
       sodipodi:r1="25.162489"
       sodipodi:r2="9.0584965"
       sodipodi:arg1="0.86522815"
       sodipodi:arg2="1.3140271"
       inkscape:flatsided="false"
       inkscape:rounded="0"
       inkscape:randomized="0"
       d="M 93.286383,49.038415 79.269822,38.645159 72.167049,54.583615 71.553641,37.144937 54.663948,41.52923 67.915602,30.17681 53.957272,19.705479 l 17.13795,3.282442 -0.51606,-17.4418301 8.11902,15.4455581 13.314814,-11.278275 -7.013697,15.977854 17.119361,3.378051 -16.864958,4.4785 z"
       inkscape:transform-center-x="-0.78527316"
       inkscape:transform-center-y="0.18121243"
       transform="matrix(0.73485297,0,0,1,67.864554,349.30664)" />
    <path
       sodipodi:type="star"
       style="opacity:1;fill:#ddd40a;fill-opacity:1;stroke:none;stroke-opacity:1"
       id="path4136-9"
       sodipodi:sides="7"
       sodipodi:cx="128.75818"
       sodipodi:cy="31.302511"
       sodipodi:r1="25.162489"
       sodipodi:r2="9.0584965"
       sodipodi:arg1="0.86522815"
       sodipodi:arg2="1.3140271"
       inkscape:flatsided="false"
       inkscape:rounded="0"
       inkscape:randomized="0"
       d="m 145.07521,50.457286 -14.01656,-10.393257 -7.10278,15.938456 -0.6134,-17.438678 -16.8897,4.384294 13.25166,-11.35242 -13.95833,-10.471331 17.13795,3.282442 -0.51606,-17.4418302 8.11902,15.4455582 13.31481,-11.278275 -7.0137,15.977854 17.11937,3.378051 -16.86496,4.4785 z"
       inkscape:transform-center-x="-0.45471154"
       inkscape:transform-center-y="0.18121243"
       transform="matrix(0.42551478,0,0,1,117.8547,348.5972)" />
    <path
       sodipodi:type="star"
       style="opacity:1;fill:#ddd40a;fill-opacity:1;stroke:none;stroke-opacity:1"
       id="path4136-0"
       sodipodi:sides="7"
       sodipodi:cx="164.23"
       sodipodi:cy="31.302509"
       sodipodi:r1="25.162489"
       sodipodi:r2="9.0584965"
       sodipodi:arg1="0.86522815"
       sodipodi:arg2="1.3140271"
       inkscape:flatsided="false"
       inkscape:rounded="0"
       inkscape:randomized="0"
       d="m 180.54703,50.457284 -14.01657,-10.393256 -7.10277,15.938456 -0.61341,-17.438678 -16.88969,4.384293 13.25165,-11.35242 -13.95833,-10.471331 17.13795,3.282442 -0.51606,-17.4418301 8.11903,15.4455581 13.31481,-11.278275 -7.0137,15.977854 17.11936,3.378051 -16.86495,4.4785 z"
       inkscape:transform-center-x="-0.092670213"
       inkscape:transform-center-y="0.18121243"
       transform="matrix(0.0867158,0,0,1,208.06973,348.5972)" />
    <path
       sodipodi:type="star"
       style="opacity:1;fill:#ddd40a;fill-opacity:1;stroke:none;stroke-opacity:1"
       id="path4136-7"
       sodipodi:sides="7"
       sodipodi:cx="184.09421"
       sodipodi:cy="32.721382"
       sodipodi:r1="25.162489"
       sodipodi:r2="9.0584965"
       sodipodi:arg1="0.86522815"
       sodipodi:arg2="1.3140271"
       inkscape:flatsided="false"
       inkscape:rounded="0"
       inkscape:randomized="0"
       d="M 200.41124,51.876157 186.39468,41.4829 l -7.10278,15.938456 -0.6134,-17.438678 -16.8897,4.384294 13.25166,-11.35242 -13.95833,-10.471331 17.13795,3.282442 -0.51606,-17.4418302 8.11902,15.4455582 13.31481,-11.278275 -7.0137,15.977854 17.11937,3.378051 -16.86496,4.478499 z"
       inkscape:transform-center-x="0.37956305"
       inkscape:transform-center-y="0.18121243"
       transform="matrix(-0.35519591,0,0,1,338.54277,346.46889)" />
    <path
       sodipodi:type="star"
       style="opacity:1;fill:#ddd40a;fill-opacity:1;stroke:none;stroke-opacity:1"
       id="path4136-85"
       sodipodi:sides="7"
       sodipodi:cx="218.74741"
       sodipodi:cy="30.064854"
       sodipodi:r1="25.162489"
       sodipodi:r2="9.0584965"
       sodipodi:arg1="0.86522815"
       sodipodi:arg2="1.3140271"
       inkscape:flatsided="false"
       inkscape:rounded="0"
       inkscape:randomized="0"
       d="M 235.06444,49.219628 221.04787,38.826372 213.9451,54.764828 213.33169,37.32615 196.442,41.710443 209.69365,30.358024 195.73532,19.886692 l 17.13795,3.282443 -0.51605,-17.4418307 8.11902,15.4455577 13.31481,-11.2782746 -7.0137,15.9778536 17.11936,3.378051 -16.86495,4.4785 z"
       inkscape:transform-center-x="0.66290426"
       inkscape:transform-center-y="0.18121243"
       transform="matrix(-0.62034294,0,0,1,458.68636,348.5972)" />
    <path
       sodipodi:type="star"
       style="opacity:1;fill:#ddd40a;fill-opacity:1;stroke:none;stroke-opacity:1"
       id="path4136-82"
       sodipodi:sides="7"
       sodipodi:cx="278.67953"
       sodipodi:cy="30.064854"
       sodipodi:r1="25.162489"
       sodipodi:r2="9.0584965"
       sodipodi:arg1="0.86522815"
       sodipodi:arg2="1.3140271"
       inkscape:flatsided="false"
       inkscape:rounded="0"
       inkscape:randomized="0"
       d="M 294.99656,49.219628 280.98,38.826372 l -7.10277,15.938456 -0.61341,-17.438678 -16.88969,4.384293 13.25165,-11.352419 -13.95833,-10.471332 17.13795,3.282443 -0.51606,-17.4418307 8.11902,15.4455577 13.31482,-11.2782746 -7.0137,15.9778536 17.11936,3.378051 -16.86496,4.4785 z"
       inkscape:transform-center-x="1.0091981"
       inkscape:transform-center-y="0.18121243"
       transform="matrix(-0.94441152,0,0,1,635.10358,347.88777)" />
    <path
       sodipodi:type="star"
       style="opacity:1;fill:#ddd40a;fill-opacity:1;stroke:none;stroke-opacity:1"
       id="path4136-82-3"
       sodipodi:sides="7"
       sodipodi:cx="278.67953"
       sodipodi:cy="30.064854"
       sodipodi:r1="25.162489"
       sodipodi:r2="9.0584965"
       sodipodi:arg1="0.86522815"
       sodipodi:arg2="1.3140271"
       inkscape:flatsided="false"
       inkscape:rounded="0"
       inkscape:randomized="0"
       d="M 294.99656,49.219628 280.98,38.826372 l -7.10277,15.938456 -0.61341,-17.438678 -16.88969,4.384293 13.25165,-11.352419 -13.95833,-10.471332 17.13795,3.282443 -0.51606,-17.4418307 8.11902,15.4455577 13.31482,-11.2782746 -7.0137,15.9778536 17.11936,3.378051 -16.86496,4.4785 z"
       inkscape:transform-center-x="0.50549298"
       inkscape:transform-center-y="0.18121243"
       transform="matrix(-0.47303903,0,0,1,550.906,349.23877)" />
    <path
       sodipodi:type="star"
       style="opacity:1;fill:#ddd40a;fill-opacity:1;stroke:none;stroke-opacity:1"
       id="path4136-82-2"
       sodipodi:sides="7"
       sodipodi:cx="278.67953"
       sodipodi:cy="30.064854"
       sodipodi:r1="25.162489"
       sodipodi:r2="9.0584965"
       sodipodi:arg1="0.86522815"
       sodipodi:arg2="1.3140271"
       inkscape:flatsided="false"
       inkscape:rounded="0"
       inkscape:randomized="0"
       d="M 294.99656,49.219628 280.98,38.826372 l -7.10277,15.938456 -0.61341,-17.438678 -16.88969,4.384293 13.25165,-11.352419 -13.95833,-10.471332 17.13795,3.282443 -0.51606,-17.4418307 8.11902,15.4455577 13.31482,-11.2782746 -7.0137,15.9778536 17.11936,3.378051 -16.86496,4.4785 z"
       inkscape:transform-center-x="0.17493355"
       inkscape:transform-center-y="0.18121243"
       transform="matrix(-0.16370083,0,0,1,517.49378,348.66512)" />
    <path
       sodipodi:type="star"
       style="opacity:1;fill:#ddd40a;fill-opacity:1;stroke:none;stroke-opacity:1"
       id="path4136-82-1"
       sodipodi:sides="7"
       sodipodi:cx="278.67953"
       sodipodi:cy="30.064854"
       sodipodi:r1="25.162489"
       sodipodi:r2="9.0584965"
       sodipodi:arg1="0.86522815"
       sodipodi:arg2="1.3140271"
       inkscape:flatsided="false"
       inkscape:rounded="0"
       inkscape:randomized="0"
       d="M 294.99656,49.219628 280.98,38.826372 l -7.10277,15.938456 -0.61341,-17.438678 -16.88969,4.384293 13.25165,-11.352419 -13.95833,-10.471332 17.13795,3.282443 -0.51606,-17.4418307 8.11902,15.4455577 13.31482,-11.2782746 -7.0137,15.9778536 17.11936,3.378051 -16.86496,4.4785 z"
       inkscape:transform-center-x="-0.26581309"
       inkscape:transform-center-y="0.18121243"
       transform="matrix(0.2487501,0,0,1,453.39447,349.37456)" />
    <path
       sodipodi:type="star"
       style="opacity:1;fill:#ddd40a;fill-opacity:1;stroke:none;stroke-opacity:1"
       id="path4136-5"
       sodipodi:sides="7"
       sodipodi:cx="570.73688"
       sodipodi:cy="378.66205"
       sodipodi:r1="25.162489"
       sodipodi:r2="9.0584965"
       sodipodi:arg1="0.86522815"
       sodipodi:arg2="1.3140271"
       inkscape:flatsided="false"
       inkscape:rounded="0"
       inkscape:randomized="0"
       d="m 587.05391,397.81682 -14.01656,-10.39325 -7.10278,15.93845 -0.6134,-17.43868 -16.8897,4.3843 13.25166,-11.35242 -13.95833,-10.47133 17.13795,3.28244 -0.51606,-17.44183 8.11902,15.44556 13.31481,-11.27828 -7.0137,15.97786 17.11936,3.37805 -16.86495,4.4785 z"
       inkscape:transform-center-x="-1.0686131"
       inkscape:transform-center-y="0.18121243" />
  </g>
</svg>
